<?xml version="1.0" encoding="UTF-8"?> <svg xmlns="http://www.w3.org/2000/svg" width="306" height="196" viewBox="0 0 306 196" fill="none"><path d="M247.588 38.9816C247.588 38.9816 247.235 38.9816 247.588 38.9816C246.882 38.2759 246.882 36.8648 247.941 36.5119C247.941 36.5119 248.647 36.1589 249.706 35.4533C250.412 35.1004 251.47 35.1003 252.176 36.1588C252.529 36.8644 252.176 37.9236 251.47 38.6293C250.765 38.9821 250.412 39.3348 250.059 39.3348C249 39.6876 247.941 39.6873 247.588 38.9816Z" fill="black"></path><path d="M258.882 35.4529C258.529 35.1001 258.529 34.747 258.529 34.3942C258.529 33.3356 259.235 32.6299 260.294 32.6299C261.706 32.6299 262.765 32.6302 264.176 32.9831C265.235 32.9831 265.941 34.042 265.588 35.1006C265.588 36.1592 264.529 36.8646 263.47 36.5117C262.412 36.5117 261.353 36.1585 260.294 36.1585C259.941 35.8056 259.235 35.8058 258.882 35.4529Z" fill="black"></path><path d="M299.117 101.082C298.765 100.729 298.412 99.6704 298.765 98.9647C299.117 97.9062 299.823 96.848 300.176 95.7895C300.529 94.7309 301.588 94.3779 302.294 94.7308C303.353 95.0836 303.706 96.1425 303.353 96.8482C303 97.9067 302.294 98.9653 301.941 100.377C301.588 101.082 300.529 101.788 299.47 101.082C299.47 101.082 299.47 101.082 299.117 101.082ZM302.647 87.3206C302.294 86.9678 302.294 86.6153 302.294 85.9096C302.294 84.851 302.294 83.7928 302.294 82.7343C302.294 81.6758 303 80.9701 304.059 80.9701C305.117 80.9701 305.823 81.6758 305.823 82.7343C305.823 84.1457 305.823 85.2042 305.823 86.2628C305.823 87.3213 305.117 88.027 304.059 88.027C303.353 88.027 303 87.6735 302.647 87.3206ZM300.529 73.9131C300.529 73.9131 300.176 73.5596 300.176 73.2068C299.823 72.1482 299.47 71.09 299.117 70.0315C298.765 68.9729 299.117 68.2674 300.176 67.5617C301.235 67.2089 301.941 67.5619 302.647 68.6204C303 69.679 303.706 70.7375 304.059 72.1489C304.412 73.2074 304.059 73.9126 303 74.2655C301.588 74.6183 300.882 74.266 300.529 73.9131ZM272.294 38.9808C271.941 38.2751 271.588 37.5699 271.941 36.8642C272.294 36.1585 273.353 35.805 274.412 36.1578C275.47 36.8635 276.529 37.2164 277.588 37.9221C278.294 38.6278 278.647 39.687 277.941 40.3927C277.235 41.0984 276.176 41.4507 275.47 40.745C274.412 40.0393 273.706 39.6865 272.647 38.9808C272.647 39.3336 272.294 39.3336 272.294 38.9808ZM294.176 61.2103C294.176 61.2103 293.823 61.2103 294.176 61.2103C293.823 60.5046 293.47 60.1518 293.117 59.4461L292.059 58.035C291.353 57.3293 291.706 56.2701 292.412 55.5644C293.117 54.8587 294.176 55.2119 294.882 55.9176L295.941 57.3286C296.294 57.6815 296.647 58.3877 297 58.7405C297.353 59.4462 297.353 60.5046 296.647 61.2103C295.588 61.916 294.529 61.916 294.176 61.2103ZM283.235 47.4496C282.529 46.7439 282.529 45.6847 283.235 44.979C283.941 44.2733 285 44.2733 285.706 44.979C286.412 45.6847 286.765 46.0375 287.47 46.7432L288.176 47.4496C288.882 48.1553 288.882 49.2137 288.176 49.9194C287.47 50.6251 286.412 50.6251 285.706 49.9194L285 49.2139C284.294 48.861 283.941 48.1553 283.235 47.4496C283.235 47.8025 283.235 47.8025 283.235 47.4496Z" fill="black"></path><path d="M292.059 110.962C291.353 110.256 291.353 109.197 292.059 108.491C292.412 108.138 292.764 107.786 293.117 107.08C293.823 106.374 294.882 106.374 295.588 107.08C296.294 107.786 296.294 108.844 295.588 109.55C295.235 109.903 294.882 110.609 294.529 110.962C294.176 111.668 293.117 111.668 292.059 110.962C292.059 110.962 292.412 110.962 292.059 110.962Z" fill="black"></path><path d="M288.529 98.2598L280.059 119.783L303 116.255L288.529 98.2598Z" fill="black"></path><path d="M173.824 43.5679H3.70592C1.58828 43.5679 0.176514 42.1565 0.176514 40.0394C0.176514 37.9223 1.58828 36.5109 3.70592 36.5109H167.118L145.235 6.51892C144.176 5.10754 144.529 2.63795 145.941 1.57941C147.353 0.520868 149.824 0.873543 150.882 2.28493L176.647 37.922C177.353 38.9805 177.706 40.3919 177 41.4504C176.294 42.8618 175.235 43.5679 173.824 43.5679Z" fill="black"></path><path d="M221.824 195.645H51.7059C49.5883 195.645 48.1765 194.233 48.1765 192.116C48.1765 189.999 49.5883 188.588 51.7059 188.588H215.118L193.235 158.596C192.177 157.185 192.529 154.714 193.941 153.656C195.353 152.597 197.824 152.95 198.882 154.361L224.647 189.999C225.353 191.057 225.706 192.469 225 193.527C224.294 194.938 223.235 195.645 221.824 195.645Z" fill="black"></path></svg> 